<?xml version="1.0" encoding="iso-8859-1"?>
<!-- Generator: Adobe Illustrator 19.0.0, SVG Export Plug-In . SVG Version: 6.00 Build 0)  -->
<svg version="1.1" id="Layer_1" xmlns="http://www.w3.org/2000/svg" xmlns:xlink="http://www.w3.org/1999/xlink" x="0px" y="0px"
	 viewBox="0 0 512 512" style="enable-background:new 0 0 512 512;" xml:space="preserve">
<circle style="fill:#FBB429;" cx="256" cy="256" r="245.801"/>
<circle style="fill:#F2F2F2;" cx="256" cy="256" r="202.964"/>
<circle style="fill:#FBB429;" cx="256" cy="256" r="31.618"/>
<g>
	<path style="fill:#4D4D4D;" d="M437.02,74.981C388.667,26.628,324.38,0,256,0S123.333,26.628,74.98,74.981
		C26.628,123.333,0,187.619,0,256s26.628,132.667,74.98,181.019C123.333,485.372,187.62,512,256,512s132.667-26.628,181.02-74.981
		C485.372,388.667,512,324.381,512,256S485.372,123.333,437.02,74.981z M256,491.602c-129.911,0-235.602-105.69-235.602-235.602
		S126.089,20.398,256,20.398S491.602,126.089,491.602,256S385.911,491.602,256,491.602z"/>
	<path style="fill:#4D4D4D;" d="M256,42.837C138.461,42.837,42.837,138.461,42.837,256S138.461,469.163,256,469.163
		S469.163,373.539,469.163,256S373.539,42.837,256,42.837z M256,448.765c-106.291,0-192.765-86.474-192.765-192.765
		S149.709,63.235,256,63.235S448.765,149.709,448.765,256S362.291,448.765,256,448.765z"/>
	<path style="fill:#4D4D4D;" d="M266.199,215.447V96.892c0-5.632-4.566-10.199-10.199-10.199s-10.199,4.567-10.199,10.199v118.555
		c-18.143,4.565-31.618,21.013-31.618,40.553c0,7.572,2.033,14.674,5.567,20.805l-43.376,43.376c-3.983,3.983-3.983,10.441,0,14.425
		c1.992,1.991,4.602,2.987,7.212,2.987s5.221-0.996,7.212-2.987l43.119-43.119c6.414,4.005,13.981,6.33,22.083,6.33
		c23.057,0,41.817-18.759,41.817-41.817C297.817,236.459,284.343,220.012,266.199,215.447z M256,277.418
		c-11.811,0-21.418-9.609-21.418-21.418s9.608-21.418,21.418-21.418c11.811,0,21.418,9.609,21.418,21.418
		C277.418,267.81,267.811,277.418,256,277.418z"/>
	<path style="fill:#4D4D4D;" d="M417.131,174.327c-2.548-5.024-8.685-7.03-13.71-4.484c-5.023,2.548-7.031,8.686-4.484,13.709
		c31.41,61.942,19.493,136.581-29.656,185.73c-3.983,3.983-3.984,10.441,0,14.425c1.992,1.991,4.602,2.987,7.212,2.987
		s5.221-0.996,7.212-2.987c27.467-27.467,45.052-62.229,50.852-100.526C440.239,245.654,434.214,208.014,417.131,174.327z"/>
	<path style="fill:#4D4D4D;" d="M375.113,148.861c2.014,2.235,4.792,3.373,7.581,3.373c2.433,0,4.873-0.866,6.823-2.621
		c4.186-3.771,4.521-10.221,0.751-14.404c-2.108-2.34-4.316-4.665-6.564-6.913c-3.983-3.982-10.441-3.982-14.425,0
		c-3.983,3.983-3.983,10.441,0,14.425C371.28,144.718,373.242,146.784,375.113,148.861z"/>
</g>
<g>
</g>
<g>
</g>
<g>
</g>
<g>
</g>
<g>
</g>
<g>
</g>
<g>
</g>
<g>
</g>
<g>
</g>
<g>
</g>
<g>
</g>
<g>
</g>
<g>
</g>
<g>
</g>
<g>
</g>
</svg>
