<?xml version="1.0"?><svg version="1.1" id="圖層_1" xmlns="http://www.w3.org/2000/svg" x="0" y="0" viewBox="0 0 100 100" xml:space="preserve"><ellipse cx="50" cy="75.4" rx="25.9" ry="6.9" fill="#666" stroke="#333" stroke-linecap="round" stroke-width="3.5" stroke-miterlimit="10"/><path d="M50 82.3c14.3 0 25.9-3.1 25.9-6.9 0-2.3-4.2-4.3-10.6-5.6L42.8 82.1c2.3.1 4.7.2 7.2.2z" opacity=".2" stroke="#000" stroke-width="3.5" stroke-linecap="round" stroke-miterlimit="10"/><path d="M65.1 49.5c.3-.4.7-.9 1-1.3.1-.1.1-.2.2-.3.3-.5.6-.9.9-1.4 0-.1.1-.2.1-.2.3-.5.5-1 .7-1.6 0 0 0 0 0 0 .2-.5.4-1.1.6-1.6 0-.1.1-.2.1-.2.2-.5.3-1.1.4-1.6 0-.1 0-.2.1-.3.1-.6.2-1.1.3-1.7V39c.1-.6.1-1.2.1-1.8 0 0 0 0 0 0V37v-1-.5c0-.2 0-.4-.1-.6 0-.1 0-.3-.1-.4 0-.3-.1-.7-.2-1 0-.2-.1-.3-.1-.5l-.3-1.2c-.1-.2-.1-.4-.2-.6-.1-.3-.2-.6-.3-1-.1-.2-.1-.3-.2-.5-.1-.4-.3-.7-.5-1-.1-.1-.1-.2-.2-.3-.2-.4-.4-.8-.7-1.2 0 0 0-.1-.1-.1-1.7-2.7-4-5-6.7-6.6 0 0 0 0 0 0-.4-.2-.8-.5-1.3-.7-.1 0-.2-.1-.3-.1-.4-.2-.8-.4-1.2-.5-.1 0-.3-.1-.4-.1-.3-.1-.7-.2-1-.3-.2-.1-.3-.1-.5-.2l-1.2-.3c-.2 0-.3-.1-.5-.1-.3-.1-.7-.1-1-.2-.1 0-.3 0-.4-.1h-4c-.1 0-.3 0-.4.1-.4 0-.7.1-1 .2-.2 0-.3.1-.5.1l-1.2.3c-.2 0-.4.1-.5.2-.3.1-.7.2-1 .3-.1 0-.3.1-.4.1-.4.2-.8.3-1.2.5-.1 0-.2.1-.3.1-.4.2-.9.4-1.3.7 0 0 0 0 0 0-2.7 1.6-5 3.9-6.7 6.6 0 0 0 .1-.1.1-.2.4-.5.8-.7 1.2-.1.1-.1.2-.2.3-.2.3-.3.7-.5 1-.1.2-.1.3-.2.5-.1.3-.2.6-.3 1-.1.2-.1.4-.2.6l-.3 1.2c0 .2-.1.3-.1.5-.1.3-.1.7-.2 1 0 .1 0 .3-.1.4 0 .2 0 .4-.1.6v1.7s0 0 0 0c0 .6 0 1.2.1 1.8v.3c.1.6.1 1.1.3 1.7 0 .1 0 .2.1.3.1.6.3 1.1.4 1.6 0 .1.1.2.1.2.2.6.4 1.1.6 1.6 0 0 0 0 0 0 .2.5.5 1 .8 1.6 0 .1.1.2.1.2.3.5.5.9.9 1.4.1.1.1.2.2.3.3.4.6.9 1 1.3 0 .1.1.1.2.2.4.4.7.8 1.1 1.2l.1.1c1.4 1.4 2.6 2.9 3.7 4.5 0 0 0 0 0 0 .3.4.5.8.8 1.2 0 0 0 0 0 0 .2.4.5.8.7 1.2v.1l.6 1.2v.1l.6 1.2s0 .1.1.1c.1.3.2.5.3.8 0 .1.1.2.1.4 1 2.7 1.6 5.5 1.8 8.4.3 1.1.8 2.2 1.4 3.1.8 1.1 2.2 1.9 3.6 2.1 1.4-.3 2.8-1 3.6-2.1.7-.9 1.1-2 1.4-3.1.2-2.9.8-5.7 1.8-8.4 0-.1.1-.2.1-.4.1-.3.2-.5.3-.8v-.1l.6-1.2v-.1l.6-1.2v-.1c.2-.4.5-.8.7-1.2 0 0 0 0 0 0 .2-.4.5-.8.8-1.2 0 0 0 0 0 0 1.1-1.6 2.3-3.1 3.7-4.5l.1-.1c.4-.4.8-.8 1.1-1.2-.1-.1-.1-.1 0-.2zm-8.4-8.8c-.2.4-.5.8-.8 1.2-.5.6-1 1.1-1.6 1.5-1.2.8-2.7 1.3-4.3 1.3h0c-1.6 0-3.1-.5-4.3-1.3-.6-.4-1.2-.9-1.6-1.5-.3-.4-.6-.8-.8-1.2-.6-1.1-.9-2.3-.9-3.7s.3-2.6.9-3.7c.2-.4.5-.8.8-1.2.5-.6 1-1.1 1.6-1.5 1.2-.8 2.7-1.3 4.3-1.3h0c1.6 0 3.1.5 4.3 1.3.6.4 1.2.9 1.6 1.5.3.4.6.8.8 1.2.6 1.1.9 2.3.9 3.7s-.3 2.6-.9 3.7z" fill="#a0c8d7" stroke="#333" stroke-width="3.5" stroke-linecap="round" stroke-miterlimit="10"/><path d="M38.5 28.6l-.4.4" fill="#a0c8d7" stroke="#fff" stroke-linecap="round" stroke-width="3.5" stroke-miterlimit="10"/><path d="M45.9 23.6c-.1 0-.3.1-.4.1-.4.2-.8.3-1.2.5-.1 0-.2.1-.3.1-.4.2-.9.4-1.3.7 0 0 0 0 0 0-.2.1-.3.2-.5.3" fill="#a0c8d7" stroke="#fff" stroke-linecap="round" stroke-width="3.5" stroke-miterlimit="10"/><path d="M69.5 37v-1-.5c0-.2 0-.4-.1-.6 0-.1 0-.3-.1-.4 0-.3-.1-.7-.2-1 0-.2-.1-.3-.1-.5l-.3-1.2c-.1-.2-.1-.4-.2-.6-.1-.3-.2-.6-.3-1-.1-.2-.1-.3-.2-.5-.1-.4-.3-.7-.5-1-.1-.1-.1-.2-.2-.3-.2-.4-.4-.8-.7-1.2 0 0 0-.1-.1-.1-1.7-2.7-4-5-6.7-6.6 0 0 0 0 0 0-.4-.2-.8-.5-1.3-.7-.1 0-.2-.1-.3-.1-.4-.2-.8-.4-1.2-.5-.1 0-.3-.1-.4-.1-.3-.1-.7-.2-1-.3-.2-.1-.3-.1-.5-.2l-1.2-.3c-.2 0-.3-.1-.5-.1-.3-.1-.7-.1-1-.2-.1 0-.3 0-.4-.1h-.1v11.8c.8.2 1.6.6 2.3 1 .6.4 1.2.9 1.6 1.5.3.4.6.8.8 1.2.6 1.1.9 2.3.9 3.7s-.3 2.6-.9 3.7c-.2.4-.5.8-.8 1.2-.5.6-1 1.1-1.6 1.5-.7.5-1.5.8-2.3 1v30.3c.6-.4 1.2-.8 1.6-1.4.7-.9 1.1-2 1.4-3.1.2-2.9.8-5.7 1.8-8.4 0-.1.1-.2.1-.4.1-.3.2-.5.3-.8v-.1l.6-1.2v-.1l.6-1.2V58c.2-.4.5-.8.7-1.2 0 0 0 0 0 0 .2-.4.5-.8.8-1.2 0 0 0 0 0 0 1.1-1.6 2.3-3.1 3.7-4.5l.1-.1c.4-.4.8-.8 1.1-1.2l.2-.2c.3-.4.7-.9 1-1.3.1-.1.1-.2.2-.3.3-.5.6-.9.9-1.4 0-.1.1-.2.1-.2.3-.5.5-1 .7-1.6 0 0 0 0 0 0 .2-.5.4-1.1.6-1.6 0-.1.1-.2.1-.2.2-.5.3-1.1.4-1.6 0-.1 0-.2.1-.3.1-.6.2-1.1.3-1.7v-.3c.1-.6.1-1.2.1-1.8 0 0 0 0 0 0 .1-.2.1-.2.1-.3z" opacity=".2" stroke="#000" stroke-width="3.5" stroke-linecap="round" stroke-miterlimit="10"/><metadata xmlns:d="https://loading.io/stock/">
<d:name>location</d:name>
<d:tags>location,place,locality,marker,landmark,waypoint,gps</d:tags>
<d:license>by</d:license>
<d:slug>36sufr</d:slug>
</metadata></svg>