<?xml version="1.0" encoding="iso-8859-1"?>
<!-- Generator: Adobe Illustrator 19.0.0, SVG Export Plug-In . SVG Version: 6.00 Build 0)  -->
<svg version="1.1" id="Layer_1" xmlns="http://www.w3.org/2000/svg" xmlns:xlink="http://www.w3.org/1999/xlink" x="0px" y="0px"
	 viewBox="0 0 512 512" style="enable-background:new 0 0 512 512;" xml:space="preserve">
<circle style="fill:#F4B2B0;" cx="255.999" cy="381.469" r="59.943"/>
<g>
	<path style="fill:#B3404A;" d="M256,455.991c-41.09,0-74.52-33.43-74.52-74.52s33.43-74.52,74.52-74.52s74.52,33.43,74.52,74.52
		S297.09,455.991,256,455.991z M256,336.107c-25.014,0-45.364,20.35-45.364,45.364s20.35,45.364,45.364,45.364
		c25.014,0,45.364-20.35,45.364-45.364C301.364,356.458,281.014,336.107,256,336.107z"/>
	<path style="fill:#B3404A;" d="M371.339,320.336c-3.777-7.108-12.602-9.808-19.713-6.032c-7.11,3.779-9.809,12.604-6.032,19.713
		c7.706,14.499,11.779,30.909,11.779,47.455c0,27.531-10.849,53.289-30.549,72.528c-19.693,19.232-45.732,29.447-73.283,28.814
		c-54.612-1.29-98.984-46.815-98.911-101.482c0.051-38.57,21.546-73.269,56.093-90.557c4.937-2.469,8.054-7.516,8.054-13.037V58.856
		c0-16.377,13.324-29.701,29.701-29.701h15.044c16.377,0,29.701,13.324,29.701,29.701v209.796c0,8.051,6.526,14.578,14.578,14.578
		s14.578-6.526,14.578-14.578v-17.46h35.084c8.051,0,14.578-6.526,14.578-14.578s-6.526-14.578-14.578-14.578h-35.084v-22.693
		h13.789c8.051,0,14.578-6.526,14.578-14.578c0-8.051-6.526-14.578-14.578-14.578h-13.789v-22.693h35.084
		c8.051,0,14.578-6.526,14.578-14.578s-6.526-14.578-14.578-14.578h-35.084V95.646h13.789c8.051,0,14.578-6.526,14.578-14.578
		s-6.526-14.578-14.578-14.578h-13.789v-7.634C322.378,26.403,295.975,0,263.522,0h-15.044c-32.453,0-58.856,26.403-58.856,58.856
		v210.229c-39.733,23.415-64.086,65.616-64.149,112.21c-0.095,70.388,57.047,129.007,127.377,130.667
		c1.066,0.026,2.125,0.038,3.187,0.038c34.295-0.001,66.563-13.12,91.159-37.141c25.362-24.773,39.332-57.938,39.332-93.388
		C386.527,360.172,381.275,339.032,371.339,320.336z"/>
	<path style="fill:#B3404A;" d="M256,283.699c-8.051,0-14.578-6.526-14.578-14.578v-83.578c0-8.051,6.526-14.578,14.578-14.578
		c8.051,0,14.578,6.526,14.578,14.578v83.578C270.578,277.173,264.051,283.699,256,283.699z"/>
</g>
<g>
</g>
<g>
</g>
<g>
</g>
<g>
</g>
<g>
</g>
<g>
</g>
<g>
</g>
<g>
</g>
<g>
</g>
<g>
</g>
<g>
</g>
<g>
</g>
<g>
</g>
<g>
</g>
<g>
</g>
</svg>
