<svg width="60" height="60" xmlns="http://www.w3.org/2000/svg" xml:space="preserve" version="1.1">

 <g>
  <title>Layer 1</title>
  <g id="svg_1">
   <path id="svg_2" fill="#F0C419" d="m30,3c-0.552,0 -1,0.448 -1,1l0,6c0,0.552 0.448,1 1,1s1,-0.448 1,-1l0,-6c0,-0.552 -0.448,-1 -1,-1z"/>
   <path id="svg_3" fill="#F0C419" d="m59,32l-6,0c-0.552,0 -1,0.448 -1,1s0.448,1 1,1l6,0c0.552,0 1,-0.448 1,-1s-0.448,-1 -1,-1z"/>
   <path id="svg_4" fill="#F0C419" d="m7,32l-6,0c-0.552,0 -1,0.448 -1,1s0.448,1 1,1l6,0c0.552,0 1,-0.448 1,-1s-0.448,-1 -1,-1z"/>
   <path id="svg_5" fill="#F0C419" d="m52.707,10.293c-0.391,-0.391 -1.023,-0.391 -1.414,0l-5.736,5.736c-0.391,0.391 -0.391,1.023 0,1.414c0.195,0.195 0.451,0.293 0.707,0.293s0.512,-0.098 0.707,-0.293l5.736,-5.736c0.391,-0.391 0.391,-1.023 0,-1.414z"/>
   <path id="svg_6" fill="#F0C419" d="m8.707,10.293c-0.391,-0.391 -1.023,-0.391 -1.414,0s-0.391,1.023 0,1.414l5.736,5.736c0.195,0.195 0.451,0.293 0.707,0.293s0.512,-0.098 0.707,-0.293c0.391,-0.391 0.391,-1.023 0,-1.414l-5.736,-5.736z"/>
   <path id="svg_7" fill="#F0C419" d="m54.854,22.45c-0.216,-0.508 -0.804,-0.746 -1.311,-0.53l-2.762,1.172c-0.508,0.216 -0.746,0.803 -0.53,1.311c0.162,0.381 0.532,0.61 0.921,0.61c0.13,0 0.263,-0.026 0.39,-0.08l2.762,-1.172c0.508,-0.216 0.745,-0.803 0.53,-1.311z"/>
   <path id="svg_8" fill="#F0C419" d="m9.049,23.457l-2.782,-1.124c-0.512,-0.207 -1.095,0.04 -1.302,0.553c-0.207,0.512 0.041,1.095 0.553,1.302l2.782,1.124c0.123,0.049 0.25,0.073 0.374,0.073c0.396,0 0.771,-0.236 0.928,-0.626c0.207,-0.512 -0.04,-1.095 -0.553,-1.302z"/>
   <path id="svg_9" fill="#F0C419" d="m20.761,8.676c-0.216,-0.509 -0.804,-0.747 -1.311,-0.53c-0.508,0.216 -0.746,0.803 -0.53,1.311l1.172,2.762c0.162,0.381 0.532,0.61 0.921,0.61c0.13,0 0.263,-0.026 0.39,-0.08c0.508,-0.216 0.746,-0.803 0.53,-1.311l-1.172,-2.762z"/>
   <path id="svg_10" fill="#F0C419" d="m40.114,7.966c-0.511,-0.207 -1.095,0.041 -1.302,0.553l-1.124,2.781c-0.207,0.512 0.041,1.095 0.553,1.302c0.123,0.049 0.25,0.073 0.374,0.073c0.396,0 0.771,-0.236 0.928,-0.626l1.124,-2.782c0.207,-0.511 -0.041,-1.094 -0.553,-1.301z"/>
  </g>
  <path id="svg_11" fill="#F0C419" d="m48.325,41c1.071,-2.451 1.675,-5.154 1.675,-8c0,-11.046 -8.954,-20 -20,-20s-20,8.954 -20,20c0,2.846 0.604,5.549 1.675,8l36.65,0z"/>
  <path id="svg_12" fill="#EDE21B" d="m42.673,41c1.466,-2.317 2.327,-5.055 2.327,-8c0,-8.284 -6.716,-15 -15,-15s-15,6.716 -15,15c0,2.945 0.861,5.683 2.327,8l25.346,0z"/>
  <g id="svg_13">
   <path id="svg_14" fill="#F29C1F" d="m59,40l-58,0c-0.552,0 -1,0.448 -1,1s0.448,1 1,1l58,0c0.552,0 1,-0.448 1,-1s-0.448,-1 -1,-1z"/>
   <path id="svg_15" fill="#F29C1F" d="m54,45l-48,0c-0.552,0 -1,0.448 -1,1s0.448,1 1,1l48,0c0.552,0 1,-0.448 1,-1s-0.448,-1 -1,-1z"/>
   <path id="svg_16" fill="#F29C1F" d="m49,50l-38,0c-0.552,0 -1,0.448 -1,1s0.448,1 1,1l38,0c0.552,0 1,-0.448 1,-1s-0.448,-1 -1,-1z"/>
   <path id="svg_17" fill="#F29C1F" d="m45,55l-30,0c-0.552,0 -1,0.448 -1,1s0.448,1 1,1l30,0c0.552,0 1,-0.448 1,-1s-0.448,-1 -1,-1z"/>
  </g>
  <polygon transform="rotate(180 30 29.707)" id="svg_18" fill="#546A79" points="36.293,28.293 31,33.586 31,22 29,22 29,33.586 23.707,28.293 22.293,29.707 30,37.414   37.707,29.707 "/>
  <g id="svg_19"/>
  <g id="svg_20"/>
  <g id="svg_21"/>
  <g id="svg_22"/>
  <g id="svg_23"/>
  <g id="svg_24"/>
  <g id="svg_25"/>
  <g id="svg_26"/>
  <g id="svg_27"/>
  <g id="svg_28"/>
  <g id="svg_29"/>
  <g id="svg_30"/>
  <g id="svg_31"/>
  <g id="svg_32"/>
  <g id="svg_33"/>
 </g>
</svg>