<?xml version="1.0" encoding="iso-8859-1"?>
<!-- Generator: Adobe Illustrator 19.0.0, SVG Export Plug-In . SVG Version: 6.00 Build 0)  -->
<svg version="1.1" id="Layer_1" xmlns="http://www.w3.org/2000/svg" xmlns:xlink="http://www.w3.org/1999/xlink" x="0px" y="0px"
	 viewBox="0 0 512.001 512.001" style="enable-background:new 0 0 512.001 512.001;" xml:space="preserve">
<path style="fill:#E4EAF8;" d="M273.103,358.157V42.221c0-18.891-15.314-34.205-34.205-34.205l0,0
	c-18.891,0-34.205,15.314-34.205,34.205v315.935c-25.24,12.563-42.648,38.505-42.755,68.586
	c-0.146,41.055,33.546,75.967,74.583,77.204c43.589,1.314,79.337-33.632,79.337-76.924
	C315.859,396.822,298.421,370.758,273.103,358.157z"/>
<circle style="fill:#9BF57D;" cx="238.899" cy="427.022" r="42.756"/>
<path style="fill:#8CE16E;" d="M264.552,452.675c-23.614,0-42.756-19.143-42.756-42.756c0-9.176,2.95-17.629,7.87-24.594
	c-19.165,4.23-33.524,21.26-33.524,41.696c0,23.613,19.142,42.756,42.756,42.756c14.436,0,27.144-7.204,34.885-18.162
	C270.804,452.274,267.73,452.675,264.552,452.675z"/>
<path d="M281.12,353.354V42.221C281.12,18.941,262.18,0,238.899,0s-42.221,18.941-42.221,42.221v311.133
	c-26.391,15.093-42.646,42.761-42.756,73.36c-0.078,21.959,8.481,42.96,24.097,59.132c15.624,16.179,36.314,25.453,58.26,26.115
	c0.886,0.026,1.767,0.04,2.649,0.04c22.227-0.001,43.14-8.461,59.142-23.987c16.642-16.149,25.806-37.809,25.806-60.992
	C323.875,396.291,307.619,368.505,281.12,353.354z M286.905,476.506c-13.496,13.095-31.316,20.003-50.142,19.427
	c-17.741-0.534-34.507-8.072-47.21-21.226c-12.701-13.152-19.661-30.176-19.597-47.937c0.093-26.181,14.773-49.723,38.31-61.438
	c2.724-1.355,4.444-4.136,4.444-7.177V42.221c0-14.44,11.748-26.188,26.188-26.188s26.188,11.748,26.188,26.188v315.935
	c0,3.042,1.721,5.821,4.444,7.177c23.632,11.762,38.311,35.4,38.311,61.689C307.842,445.831,300.407,463.405,286.905,476.506z"/>
<path d="M246.915,376.889V93.528c0-4.427-3.589-8.017-8.017-8.017c-4.427,0-8.017,3.589-8.017,8.017v283.361
	c-24.2,3.855-42.756,24.866-42.756,50.133c0,27.995,22.777,50.772,50.772,50.772s50.772-22.777,50.772-50.772
	C289.671,401.755,271.115,380.744,246.915,376.889z M238.899,461.761c-19.155,0-34.739-15.584-34.739-34.739
	s15.584-34.739,34.739-34.739s34.739,15.584,34.739,34.739S258.054,461.761,238.899,461.761z"/>
<path d="M350.063,256.534h-42.756c-4.427,0-8.017,3.589-8.017,8.017s3.589,8.017,8.017,8.017h42.756
	c4.427,0,8.017-3.589,8.017-8.017S354.492,256.534,350.063,256.534z"/>
<path d="M307.308,229.812h25.653c4.427,0,8.017-3.589,8.017-8.017c0-4.427-3.589-8.017-8.017-8.017h-25.653
	c-4.427,0-8.017,3.589-8.017,8.017C299.291,226.222,302.88,229.812,307.308,229.812z"/>
<path d="M350.063,171.023h-42.756c-4.427,0-8.017,3.589-8.017,8.017c0,4.427,3.589,8.017,8.017,8.017h42.756
	c4.427,0,8.017-3.589,8.017-8.017C358.08,174.612,354.492,171.023,350.063,171.023z"/>
<path d="M307.308,144.3h25.653c4.427,0,8.017-3.589,8.017-8.017c0-4.427-3.589-8.017-8.017-8.017h-25.653
	c-4.427,0-8.017,3.589-8.017,8.017C299.291,140.711,302.88,144.3,307.308,144.3z"/>
<path d="M307.308,101.545h42.756c4.427,0,8.017-3.589,8.017-8.017s-3.589-8.017-8.017-8.017h-42.756
	c-4.427,0-8.017,3.589-8.017,8.017S302.88,101.545,307.308,101.545z"/>
<g>
</g>
<g>
</g>
<g>
</g>
<g>
</g>
<g>
</g>
<g>
</g>
<g>
</g>
<g>
</g>
<g>
</g>
<g>
</g>
<g>
</g>
<g>
</g>
<g>
</g>
<g>
</g>
<g>
</g>
</svg>
