<?xml version="1.0" encoding="iso-8859-1"?>
<!-- Generator: Adobe Illustrator 19.0.0, SVG Export Plug-In . SVG Version: 6.00 Build 0)  -->
<svg version="1.1" id="Layer_1" xmlns="http://www.w3.org/2000/svg" xmlns:xlink="http://www.w3.org/1999/xlink" x="0px" y="0px"
	 viewBox="0 0 512 512" style="enable-background:new 0 0 512 512;" xml:space="preserve">
<g>
	<path style="fill:#50A5DC;" d="M256,397.556c135.862,0,246-119.819,246-119.819s-63.115-68.642-152.716-102.014
		c16.916,20.728,27.065,47.195,27.065,76.036c0,66.467-53.882,120.349-120.349,120.349s-120.349-53.882-120.349-120.349
		c0-28.841,10.15-55.308,27.065-76.036C73.115,209.095,10,277.737,10,277.737S120.138,397.556,256,397.556z"/>
	<path d="M10.001,230.479c-2.623,0-5.242-1.025-7.205-3.064c-3.831-3.979-3.71-10.31,0.269-14.14
		c1.158-1.115,28.881-27.615,73.871-54.405c41.695-24.828,106.608-54.425,179.064-54.425c49.504,0,100.979,13.463,152.997,40.017
		c4.919,2.511,6.871,8.534,4.359,13.453c-2.511,4.92-8.534,6.873-13.453,4.359c-49.175-25.102-97.591-37.829-143.903-37.829
		c-130.323,0-237.992,102.206-239.064,103.238C14.996,229.55,12.497,230.479,10.001,230.479z"/>
	<path d="M501.999,230.479c-2.495,0-4.992-0.928-6.932-2.793c-0.19-0.183-13.908-13.285-37.067-29.903
		c-4.487-3.22-5.515-9.468-2.295-13.955c3.22-4.486,9.467-5.514,13.955-2.295c24.477,17.563,38.683,31.172,39.275,31.742
		c3.979,3.83,4.099,10.161,0.269,14.14C507.241,229.453,504.621,230.479,501.999,230.479z"/>
	<path style="fill:#FCE600;" d="M162.716,175.723c-16.916,20.728-27.065,47.195-27.065,76.036
		c0,66.467,53.882,120.349,120.349,120.349s120.349-53.882,120.349-120.349c0-28.841-10.15-55.308-27.065-76.036
		c-28.77-10.715-60.263-17.805-93.284-17.805S191.486,165.007,162.716,175.723z"/>
	<path d="M509.361,270.969c-2.644-2.875-65.782-70.797-156.587-104.617c-32.84-12.231-65.399-18.434-96.774-18.434
		s-63.935,6.202-96.774,18.434C68.421,200.172,5.282,268.094,2.639,270.969c-3.518,3.826-3.518,9.709-0.001,13.536
		c1.157,1.259,28.851,31.172,73.832,61.438c41.772,28.107,106.827,61.612,179.531,61.612s137.759-33.505,179.531-61.612
		c44.979-30.267,72.674-60.18,73.831-61.438C512.88,280.678,512.879,274.795,509.361,270.969z M343.161,184.127
		c14.914,19.215,23.189,43.3,23.189,67.632c0,60.847-49.503,110.349-110.35,110.349s-110.349-49.502-110.349-110.349
		c0-24.331,8.274-48.417,23.188-67.632c29.699-10.757,59.009-16.209,87.161-16.209C284.152,167.918,313.462,173.37,343.161,184.127
		C343.391,184.423,313.462,173.37,343.161,184.127C343.391,184.423,313.462,173.37,343.161,184.127z M424.366,329.35
		C384.903,355.903,323.66,387.556,256,387.556c-67.487,0-128.583-31.501-167.951-57.928c-30.738-20.633-53.421-41.493-64.021-51.888
		c15.643-15.324,57.637-53.425,113.541-80.398c-8.275,18.033-12.379,37.94-11.874,57.776c1.646,64.747,50.738,117.91,113.728,125.94
		c5.43,0.692,10.964,1.049,16.579,1.049s11.149-0.357,16.579-1.049c62.99-8.031,112.082-61.193,113.728-125.94
		c0.505-19.821-3.585-39.754-11.871-57.769c55.827,26.955,97.876,65.079,113.536,80.4
		C477.44,288.084,454.967,308.759,424.366,329.35C384.903,355.903,454.967,308.759,424.366,329.35
		C384.903,355.903,454.967,308.759,424.366,329.35z"/>
	<path d="M194.179,306.823c-3.117,0-6.188-1.453-8.141-4.182c-10.478-14.642-16.016-31.927-16.016-49.985
		c0-19.75,6.868-39.043,19.339-54.324c3.493-4.278,9.792-4.917,14.07-1.425c4.279,3.491,4.917,9.791,1.425,14.069
		c-9.566,11.723-14.834,26.524-14.834,41.68c0,13.859,4.247,27.12,12.281,38.347c3.214,4.491,2.179,10.737-2.313,13.951
		C198.228,306.216,196.193,306.823,194.179,306.823z"/>
	<path d="M256,338.634c-13.489,0-26.408-3.039-38.399-9.033c-4.94-2.469-6.943-8.476-4.474-13.415
		c2.47-4.94,8.476-6.943,13.416-4.474c9.189,4.593,19.1,6.922,29.457,6.922c5.522,0,10,4.478,10,10S261.523,338.634,256,338.634z"/>
</g>
<g>
</g>
<g>
</g>
<g>
</g>
<g>
</g>
<g>
</g>
<g>
</g>
<g>
</g>
<g>
</g>
<g>
</g>
<g>
</g>
<g>
</g>
<g>
</g>
<g>
</g>
<g>
</g>
<g>
</g>
</svg>
